<svg xmlns="http://www.w3.org/2000/svg" xmlns:xlink="http://www.w3.org/1999/xlink" viewBox="0 0 40 40"><defs><style>.cls-1{fill:#fff;fill-rule:evenodd;}.cls-2{mask:url(#mask);}</style><mask id="mask" x="10.39" y="13.64" width="19.59" height="16.18" maskUnits="userSpaceOnUse"><g id="mask0"><path id="Clip_2" data-name="Clip 2" class="cls-1" d="M10.39,13.64H30V29.82H10.39Z"/></g></mask></defs><g id="Слой_2" data-name="Слой 2"><g id="Слой_1-2" data-name="Слой 1"><circle cx="20" cy="20" r="20"/><g id="Iconly_Light-Outline_Bag" data-name="Iconly/Light-Outline/Bag"><g id="Bag"><g id="Group_3" data-name="Group 3"><g class="cls-2"><path id="Fill_1" data-name="Fill 1" class="cls-1" d="M15.11,15.14c-.45,0-1.92.18-2.34,2.46l-.77,6c-.26,1.68-.06,2.9.57,3.64s1.75,1.08,3.43,1.08h8.35a4.37,4.37,0,0,0,3.34-1.21,4.23,4.23,0,0,0,.71-3.5l-.78-6.05c-.34-1.49-1.21-2.42-2.34-2.42Zm9.24,14.68H16c-2.14,0-3.63-.52-4.56-1.6s-1.25-2.71-.93-4.83l.78-6c.51-2.76,2.37-3.73,3.82-3.73H25.28c1.45,0,3.22,1,3.81,3.66l.79,6.11a5.69,5.69,0,0,1-1.05,4.69A5.74,5.74,0,0,1,24.35,29.82Z"/></g></g><path id="Fill_4" data-name="Fill 4" class="cls-1" d="M24.49,14.92a.75.75,0,0,1-.75-.75,3.57,3.57,0,0,0-3.57-3.57h0a3.57,3.57,0,0,0-3.57,3.57.75.75,0,0,1-1.5,0A5.07,5.07,0,0,1,20.15,9.1h0a5.08,5.08,0,0,1,5.07,5.07A.76.76,0,0,1,24.49,14.92Z"/><path id="Fill_6" data-name="Fill 6" class="cls-1" d="M23.13,19.42h0a.75.75,0,0,1,0-1.5.77.77,0,0,1,.77.75A.73.73,0,0,1,23.13,19.42Z"/><path id="Fill_8" data-name="Fill 8" class="cls-1" d="M17.3,19.42h0a.75.75,0,0,1,0-1.5.77.77,0,0,1,.77.75A.73.73,0,0,1,17.3,19.42Z"/></g></g></g></g></svg>