<svg xmlns="http://www.w3.org/2000/svg" xmlns:xlink="http://www.w3.org/1999/xlink" viewBox="0 0 60 64.88"><defs><style>.cls-1{fill:none;}.cls-2{clip-path:url(#clip-path);}.cls-3{fill:#ffde68;}</style><clipPath id="clip-path"><rect id="SVGID" class="cls-1" x="15.54" y="14.47" width="30" height="30" transform="translate(-5.83 51.34) rotate(-75)"/></clipPath></defs><g id="Слой_2" data-name="Слой 2"><g id="Слой_1-2" data-name="Слой 1"><path d="M0,10A10,10,0,0,1,10,0H50A10,10,0,0,1,60,10V50A10,10,0,0,1,50,60H21.57a3.56,3.56,0,0,0-3.38,2.44,3.57,3.57,0,0,1-6.73.12l-.07-.2A3.66,3.66,0,0,0,8,60H6.2A6.21,6.21,0,0,1,0,53.8Z"/><g class="cls-2"><path class="cls-3" d="M35.2,31.65a7.31,7.31,0,0,0-11.89-3.18l-4.45,4.06a4.63,4.63,0,0,0,3.81,8h.07a9,9,0,0,1,7,1.9,4.5,4.5,0,0,0,1.69.85,4.34,4.34,0,0,0,1,.16,4.62,4.62,0,0,0,4.57-6Z"/><path class="cls-3" d="M21,27.85a3.55,3.55,0,0,0,2.57-1.59A4.71,4.71,0,0,0,23,20.34a3.54,3.54,0,0,0-2.84-1A4.06,4.06,0,0,0,16.81,24a4.28,4.28,0,0,0,3,3.76A3.39,3.39,0,0,0,21,27.85Z"/><path class="cls-3" d="M28.15,25.64c2.34.63,4.84-1,5.55-3.71s-.61-5.36-3-6-4.83,1-5.55,3.71S25.8,25,28.15,25.64Z"/><path class="cls-3" d="M35.18,28.8h0a3.53,3.53,0,0,0,1,.47,4.57,4.57,0,0,0,4.86-2.08,4.94,4.94,0,0,0,.81-3.3A3.72,3.72,0,0,0,37,20.69a4.89,4.89,0,0,0-2.71,2A4.35,4.35,0,0,0,35.18,28.8Z"/><path class="cls-3" d="M44.29,30.64h0A4.31,4.31,0,0,0,37.59,36a3.45,3.45,0,0,0,1.82,1.18,4.44,4.44,0,0,0,3.88-.89A4.05,4.05,0,0,0,44.29,30.64Z"/></g></g></g></svg>